<svg xmlns="http://www.w3.org/2000/svg" xmlns:xlink="http://www.w3.org/1999/xlink" viewBox="0,0,255.99431,255.99431" width="60px" height="60px" fill-rule="nonzero"><g transform="translate(68.26515,68.26515) scale(0.46667,0.46667)"><g fill="#222326" fill-rule="nonzero" stroke="none" stroke-width="1" stroke-linecap="butt" stroke-linejoin="miter" stroke-miterlimit="10" stroke-dasharray="" stroke-dashoffset="0" font-family="none" font-weight="none" font-size="none" text-anchor="none" style="mix-blend-mode: normal"><path d="M-146.28246,402.27677v-548.55923h548.55923v548.55923z" id="bgRectangle"></path></g><g fill="#605f5f" fill-rule="nonzero" stroke="none" stroke-width="1" stroke-linecap="butt" stroke-linejoin="miter" stroke-miterlimit="10" stroke-dasharray="" stroke-dashoffset="0" font-family="none" font-weight="none" font-size="none" text-anchor="none" style="mix-blend-mode: normal"><path d="M127.99715,402.27677c-151.48045,0 -274.27962,-122.79917 -274.27962,-274.27962v0c0,-151.48045 122.79917,-274.27962 274.27962,-274.27962v0c151.48045,0 274.27962,122.79917 274.27962,274.27962v0c0,151.48045 -122.79917,274.27962 -274.27962,274.27962z" id="shape"></path></g><g fill="#ffffff" fill-rule="nonzero" stroke="none" stroke-width="1" stroke-linecap="butt" stroke-linejoin="miter" stroke-miterlimit="10" stroke-dasharray="" stroke-dashoffset="0" font-family="none" font-weight="none" font-size="none" text-anchor="none" style="mix-blend-mode: normal"><g transform="scale(8.53333,8.53333)"><path d="M12,27v-12h-4v-4h4v-2.148c0,-4.067 1.981,-5.852 5.361,-5.852c1.619,0 2.475,0.12 2.88,0.175v3.825h-2.305c-1.435,0 -1.936,0.757 -1.936,2.291v1.709h4.205l-0.571,4h-3.634v12z"></path></g></g></g></svg>